<?xml version="1.0" encoding="UTF-8"?>
<!DOCTYPE svg  PUBLIC '-//W3C//DTD SVG 20010904//EN'  'http://www.w3.org/TR/2001/REC-SVG-20010904/DTD/svg10.dtd'>
<svg width="512pt" height="512pt" version="1.0" viewBox="0 0 512 512" xmlns="http://www.w3.org/2000/svg">
<metadata>Created by potrace 1.14, written by Peter Selinger 2001-2017</metadata>
<g transform="translate(0 512) scale(.1 -.1)">
<path d="m2410 4877c-3-3-39-7-80-11-137-12-250-31-350-60-25-8-47-13-50-13s-36-10-75-22c-613-198-1116-639-1389-1216-60-126-59-123-94-225-44-125-82-271-98-372-11-76-14-98-21-158-15-125-7-509 12-580 2-8 6-32 9-52 19-128 88-372 138-488 49-112 170-345 188-360 3-3 21-30 40-60s37-57 40-60 19-23 35-46c153-211 422-449 675-597 100-58 283-147 304-147 7 0 16-4 22-8 33-30 363-119 504-137 25-3 77-9 115-14 68-8 419-7 480 2 17 3 57 8 90 13 33 4 62 8 65 9s19 4 35 8c17 4 41 9 55 11 65 13 127 29 222 61 741 244 1315 850 1519 1604 26 96 46 193 53 256 3 28 10 82 15 120 9 72 8 476-2 491-3 5-8 34-11 64s-8 64-10 75c-3 11-12 54-21 95-170 794-777 1460-1555 1708-109 35-198 58-254 66-21 4-41 8-45 10-3 2-33 7-66 11s-71 9-85 11c-35 6-405 16-410 11z"/>
</g>
</svg>